<svg width="220" height="40" viewBox="0 0 220 40" fill="none" xmlns="http://www.w3.org/2000/svg">
<path d="M20 40C31.0457 40 40 31.0457 40 20V6.00003C40 2.68632 37.3137 3.02827e-05 34 2.9993e-05L21 2.88565e-05L21 8.77385C21 10.7759 21.1224 12.8496 22.1725 14.5542C23.6625 16.9732 26.1515 18.7029 29.0764 19.1807L29.4595 19.2433C29.7828 19.3541 30 19.6582 30 20C30 20.3419 29.7828 20.6459 29.4595 20.7568L29.0764 20.8194C24.836 21.512 21.512 24.836 20.8193 29.0764L20.7568 29.4595C20.6459 29.7828 20.3418 30 20 30C19.6582 30 19.3541 29.7828 19.2432 29.4595L19.1807 29.0764C18.7029 26.1515 16.9731 23.6626 14.5542 22.1725C12.8496 21.1224 10.7759 21 8.77382 21L0.0245684 21C0.545598 31.5811 9.28963 40 20 40Z" fill="url(#paint0_linear_5374_3003)"></path>
<path d="M1.90735e-06 19L8.77382 19C10.7759 19 12.8495 18.8777 14.5541 17.8276C15.8852 17.0077 17.0076 15.8853 17.8276 14.5542C18.8776 12.8495 19 10.7759 19 8.77385L19 2.86817e-05L6 2.75452e-05C2.68629 2.72555e-05 3.33354e-06 2.68632 3.04384e-06 6.00003L1.90735e-06 19Z" fill="url(#paint1_linear_5374_3003)"></path>
<path d="M46.4552 2C46.4552 3.10457 45.5597 4 44.4552 4C43.3506 4 42.4552 3.10457 42.4552 2C42.4552 0.895431 43.3506 0 44.4552 0C45.5597 0 46.4552 0.895431 46.4552 2Z" fill="url(#paint2_linear_5374_3003)"></path>
<path d="M211.711 12.1036C217.302 12.1036 220 16.0089 220 20.5325V29.0266H214.149V21.5414C214.149 19.4911 213.401 17.7988 211.256 17.7988C209.111 17.7988 208.396 19.4911 208.396 21.5414V29.0266H202.545V21.5414C202.545 19.4911 201.83 17.7988 199.684 17.7988C197.539 17.7988 196.791 19.4911 196.791 21.5414V29.0266H190.941V20.5325C190.941 16.0089 193.638 12.1036 199.229 12.1036C202.285 12.1036 204.495 13.3077 205.503 15.2929C206.575 13.3077 208.916 12.1036 211.711 12.1036Z" fill="url(#paint3_linear_5374_3003)"></path>
<path d="M180.427 23.8195C182.312 23.8195 183.125 22.0947 183.125 20.0444V12.7544H188.975V20.7604C188.975 25.5444 186.18 29.5148 180.427 29.5148C174.673 29.5148 171.878 25.5444 171.878 20.7604V12.7544H177.729V20.0444C177.729 22.0947 178.541 23.8195 180.427 23.8195Z" fill="url(#paint4_linear_5374_3003)"></path>
<path d="M163.275 29.5473C159.602 29.5473 157.229 28.2781 155.831 25.8047L160.057 23.429C160.642 24.4704 161.519 24.9911 162.982 24.9911C164.185 24.9911 164.737 24.568 164.737 24.0473C164.737 22.0621 156.156 24.0799 156.156 17.7663C156.156 14.7071 158.756 12.2337 163.177 12.2337C167.045 12.2337 169.158 14.1213 170.101 15.9438L165.875 18.3521C165.518 17.3757 164.412 16.7899 163.307 16.7899C162.462 16.7899 162.007 17.1479 162.007 17.6361C162.007 19.6538 170.588 17.7988 170.588 23.9172C170.588 27.3343 167.24 29.5473 163.275 29.5473Z" fill="url(#paint5_linear_5374_3003)"></path>
<path d="M142.833 36.5118H136.982V20.858C136.982 15.8787 140.72 12.2663 145.921 12.2663C150.992 12.2663 154.86 16.1391 154.86 20.858C154.86 26.0651 151.414 29.5148 146.246 29.5148C145.043 29.5148 143.841 29.1568 142.833 28.6035V36.5118ZM145.921 24.0148C147.774 24.0148 149.009 22.5828 149.009 20.8905C149.009 19.1657 147.774 17.7663 145.921 17.7663C144.068 17.7663 142.833 19.1657 142.833 20.8905C142.833 22.5828 144.068 24.0148 145.921 24.0148Z" fill="url(#paint6_linear_5374_3003)"></path>
<path d="M131.121 11.0296C129.203 11.0296 127.611 9.43491 127.611 7.51479C127.611 5.59468 129.203 4 131.121 4C133.039 4 134.632 5.59468 134.632 7.51479C134.632 9.43491 133.039 11.0296 131.121 11.0296ZM128.196 12.7544H134.047V29.0266H128.196V12.7544Z" fill="url(#paint7_linear_5374_3003)"></path>
<path d="M116.97 29.5148C111.899 29.5148 108.031 25.6095 108.031 20.858C108.031 16.1391 111.899 12.2337 116.97 12.2337C122.041 12.2337 125.909 16.1391 125.909 20.858C125.909 25.6095 122.041 29.5148 116.97 29.5148ZM116.97 24.0148C118.823 24.0148 120.058 22.5828 120.058 20.8905C120.058 19.1657 118.823 17.7337 116.97 17.7337C115.117 17.7337 113.882 19.1657 113.882 20.8905C113.882 22.5828 115.117 24.0148 116.97 24.0148Z" fill="url(#paint8_linear_5374_3003)"></path>
<path d="M96.9832 37C92.9526 37 90.0271 35.2101 88.5319 32.0207L93.3751 29.4172C93.8952 30.5237 94.8704 31.6627 96.8857 31.6627C98.9985 31.6627 100.396 30.3284 100.559 27.9852C99.7786 28.6686 98.5434 29.1893 96.6906 29.1893C92.1724 29.1893 88.5319 25.7071 88.5319 20.8254C88.5319 16.1065 92.4 12.2663 97.4707 12.2663C102.672 12.2663 106.41 15.8787 106.41 20.858V27.3018C106.41 33.1598 102.346 37 96.9832 37ZM97.3732 23.6893C99.1285 23.6893 100.461 22.4852 100.461 20.6953C100.461 18.9379 99.1285 17.7663 97.3732 17.7663C95.6505 17.7663 94.2853 18.9379 94.2853 20.6953C94.2853 22.4852 95.6505 23.6893 97.3732 23.6893Z" fill="url(#paint9_linear_5374_3003)"></path>
<path d="M78.6067 29.5148C73.5359 29.5148 69.6678 25.6095 69.6678 20.858C69.6678 16.1391 73.5359 12.2337 78.6067 12.2337C83.6775 12.2337 87.5456 16.1391 87.5456 20.858C87.5456 25.6095 83.6775 29.5148 78.6067 29.5148ZM78.6067 24.0148C80.4595 24.0148 81.6947 22.5828 81.6947 20.8905C81.6947 19.1657 80.4595 17.7337 78.6067 17.7337C76.7539 17.7337 75.5187 19.1657 75.5187 20.8905C75.5187 22.5828 76.7539 24.0148 78.6067 24.0148Z" fill="url(#paint10_linear_5374_3003)"></path>
<path d="M59.0134 7.05916V23.4941H68.6999V29.0266H58.2008C54.4952 29.0266 53 27.074 53 23.9822V7.05916H59.0134Z" fill="url(#paint11_linear_5374_3003)"></path>
<defs>
<linearGradient id="paint0_linear_5374_3003" x1="25.4712" y1="0" x2="25.4712" y2="40" gradientUnits="userSpaceOnUse">
<stop stop-color="white"></stop>
<stop offset="1" stop-color="#ADADAD"></stop>
</linearGradient>
<linearGradient id="paint1_linear_5374_3003" x1="25.4712" y1="0" x2="25.4712" y2="40" gradientUnits="userSpaceOnUse">
<stop stop-color="white"></stop>
<stop offset="1" stop-color="#ADADAD"></stop>
</linearGradient>
<linearGradient id="paint2_linear_5374_3003" x1="25.4712" y1="0" x2="25.4712" y2="40" gradientUnits="userSpaceOnUse">
<stop stop-color="white"></stop>
<stop offset="1" stop-color="#ADADAD"></stop>
</linearGradient>
<linearGradient id="paint3_linear_5374_3003" x1="144.565" y1="4" x2="144.565" y2="37" gradientUnits="userSpaceOnUse">
<stop stop-color="white"></stop>
<stop offset="1" stop-color="#ADADAD"></stop>
</linearGradient>
<linearGradient id="paint4_linear_5374_3003" x1="144.565" y1="4" x2="144.565" y2="37" gradientUnits="userSpaceOnUse">
<stop stop-color="white"></stop>
<stop offset="1" stop-color="#ADADAD"></stop>
</linearGradient>
<linearGradient id="paint5_linear_5374_3003" x1="144.565" y1="4" x2="144.565" y2="37" gradientUnits="userSpaceOnUse">
<stop stop-color="white"></stop>
<stop offset="1" stop-color="#ADADAD"></stop>
</linearGradient>
<linearGradient id="paint6_linear_5374_3003" x1="144.565" y1="4" x2="144.565" y2="37" gradientUnits="userSpaceOnUse">
<stop stop-color="white"></stop>
<stop offset="1" stop-color="#ADADAD"></stop>
</linearGradient>
<linearGradient id="paint7_linear_5374_3003" x1="144.565" y1="4" x2="144.565" y2="37" gradientUnits="userSpaceOnUse">
<stop stop-color="white"></stop>
<stop offset="1" stop-color="#ADADAD"></stop>
</linearGradient>
<linearGradient id="paint8_linear_5374_3003" x1="144.565" y1="4" x2="144.565" y2="37" gradientUnits="userSpaceOnUse">
<stop stop-color="white"></stop>
<stop offset="1" stop-color="#ADADAD"></stop>
</linearGradient>
<linearGradient id="paint9_linear_5374_3003" x1="144.565" y1="4" x2="144.565" y2="37" gradientUnits="userSpaceOnUse">
<stop stop-color="white"></stop>
<stop offset="1" stop-color="#ADADAD"></stop>
</linearGradient>
<linearGradient id="paint10_linear_5374_3003" x1="144.565" y1="4" x2="144.565" y2="37" gradientUnits="userSpaceOnUse">
<stop stop-color="white"></stop>
<stop offset="1" stop-color="#ADADAD"></stop>
</linearGradient>
<linearGradient id="paint11_linear_5374_3003" x1="144.565" y1="4" x2="144.565" y2="37" gradientUnits="userSpaceOnUse">
<stop stop-color="white"></stop>
<stop offset="1" stop-color="#ADADAD"></stop>
</linearGradient>
</defs>
</svg>